<svg width="136" height="26" viewBox="0 0 136 26" fill="none" xmlns="http://www.w3.org/2000/svg">
<path fill-rule="evenodd" clip-rule="evenodd" d="M93.6134 0C94.8561 0 95.8634 1.00736 95.8634 2.25V16.25C95.8634 21.3904 91.6426 25.5 86.5074 25.5C81.3722 25.5 77.1513 21.3904 77.1513 16.25C77.1513 11.1096 81.3722 7 86.5074 7C88.2804 7 89.9445 7.48992 91.3634 8.34304V2.25C91.3634 1.00736 92.3708 0 93.6134 0ZM91.3634 16.25C91.3634 13.6584 89.2213 11.5 86.5074 11.5C83.7934 11.5 81.6513 13.6584 81.6513 16.25C81.6513 18.8416 83.7934 21 86.5074 21C89.2213 21 91.3634 18.8416 91.3634 16.25Z" fill="white"/>
<path d="M122.142 0.75C123.384 0.75 124.392 1.75736 124.392 3V7.25H130.667C131.91 7.25 132.917 8.25736 132.917 9.5C132.917 10.7426 131.91 11.75 130.667 11.75H124.346L124.34 11.9481L124.34 11.9492C124.315 12.7091 124.292 13.438 124.289 14.1522C124.281 15.6483 124.363 16.9058 124.633 17.9219C124.894 18.901 125.291 19.5208 125.841 19.9294C126.401 20.3467 127.389 20.7441 129.207 20.7499C129.85 20.7206 130.567 20.4335 131.22 20.0418C131.533 19.8541 131.789 19.6674 131.964 19.5306C132.05 19.4629 132.114 19.4095 132.152 19.3769L132.182 19.3502L132.182 19.3511L133.712 21C135.243 22.6489 135.243 22.6494 135.242 22.6498L135.241 22.6507L135.239 22.6526L135.234 22.657L135.223 22.668L135.189 22.6981L135.153 22.7303L135.118 22.7605L135.086 22.7886C135.001 22.8615 134.884 22.9588 134.739 23.0726C134.451 23.2988 134.04 23.5975 133.536 23.9002C132.565 24.4826 131.063 25.1925 129.32 25.2488L129.284 25.25H129.248C126.777 25.25 124.73 24.7127 123.154 23.5393C121.561 22.3542 120.722 20.724 120.284 19.0781C119.857 17.4692 119.78 15.7267 119.789 14.1291C119.793 13.3527 119.818 12.5692 119.841 11.8254L119.844 11.7312C119.869 10.9474 119.892 10.2088 119.892 9.5V3.00045C119.892 1.75781 120.899 0.75 122.142 0.75Z" fill="white"/>
<path d="M133.712 21L135.243 22.6489C136.154 21.8035 136.207 20.3798 135.361 19.4692C134.518 18.561 133.1 18.5059 132.189 19.3439L132.188 19.3452L132.182 19.3502C132.182 19.3506 132.182 19.3511 133.712 21Z" fill="white"/>
<path d="M32.7046 1C33.9472 1 34.9546 2.00736 34.9546 3.25V13.5H35.3921L40.8406 8.58007C41.7628 7.74727 43.1856 7.8198 44.0184 8.74208C44.8512 9.66435 44.7787 11.0871 43.8564 11.9199L39.476 15.8754L44.997 21.7025C45.8516 22.6045 45.8132 24.0286 44.9112 24.8833C44.0091 25.738 42.585 25.6996 41.7303 24.7975L35.2899 18H34.9546V23.25C34.9546 24.4926 33.9472 25.5 32.7046 25.5C31.4619 25.5 30.4546 24.4926 30.4546 23.25V3.25C30.4546 2.00736 31.4619 1 32.7046 1Z" fill="white"/>
<path d="M71.7046 6C72.9472 6 73.9546 7.00736 73.9546 8.25V23C73.9546 24.2426 72.9472 25.25 71.7046 25.25C70.4619 25.25 69.4546 24.2426 69.4546 23V8.25C69.4546 7.00736 70.4619 6 71.7046 6Z" fill="white"/>
<path d="M24.7046 6.25C25.9472 6.25 26.9546 7.25736 26.9546 8.5V23.25C26.9546 24.4926 25.9472 25.5 24.7046 25.5C23.4619 25.5 22.4546 24.4926 22.4546 23.25V8.5C22.4546 7.25736 23.4619 6.25 24.7046 6.25Z" fill="white"/>
<path fill-rule="evenodd" clip-rule="evenodd" d="M98.4697 16C98.4697 10.8596 102.691 6.75 107.826 6.75C112.961 6.75 117.182 10.8596 117.182 16C117.182 21.1404 112.961 25.25 107.826 25.25C102.691 25.25 98.4697 21.1404 98.4697 16ZM107.826 11.25C105.112 11.25 102.97 13.4084 102.97 16C102.97 18.5916 105.112 20.75 107.826 20.75C110.54 20.75 112.682 18.5916 112.682 16C112.682 13.4084 110.54 11.25 107.826 11.25Z" fill="white"/>
<path d="M5.97825 12.8566C4.91111 13.742 4.50005 14.6665 4.50003 15.2501L4.5 23.249L0 23.25L3.02792e-05 15.2499C0.000128269 12.8335 1.46011 10.758 3.10495 9.39337C4.78075 8.00305 7.04972 7 9.356 7C11.5572 7 13.8191 7.80373 15.5582 9.16641C17.3097 10.5387 18.7121 12.6391 18.7122 15.2499V23.2492L14.2122 23.2499V15.2501C14.2121 14.3609 13.7434 13.4613 12.7828 12.7086C11.8099 11.9463 10.5187 11.5 9.356 11.5C8.2984 11.5 7.01444 11.997 5.97825 12.8566Z" fill="white"/>
<path d="M18.7122 23.2492C18.7121 24.4919 17.7048 25.5 16.4621 25.5C15.2195 25.5 14.2121 24.4925 14.2122 23.2499L18.7122 23.2492Z" fill="white"/>
<path d="M4.5 23.249C4.50003 24.4917 3.49269 25.5 2.25005 25.5C1.00741 25.5 2.52724e-05 24.4926 0 23.25L4.5 23.249Z" fill="white"/>
<path fill-rule="evenodd" clip-rule="evenodd" d="M46.6967 16.25C46.6967 11.1096 50.9176 7 56.0528 7C61.188 7 65.4089 11.1096 65.4089 16.25C65.4089 21.3904 61.188 25.5 56.0528 25.5C50.9176 25.5 46.6967 21.3904 46.6967 16.25ZM56.0528 11.5C53.3388 11.5 51.1967 13.6584 51.1967 16.25C51.1967 18.8416 53.3388 21 56.0528 21C58.7668 21 60.9089 18.8416 60.9089 16.25C60.9089 13.6584 58.7668 11.5 56.0528 11.5Z" fill="white"/>
<path d="M27 2.25C27 3.49264 25.9926 4.5 24.75 4.5C23.5073 4.5 22.5 3.49264 22.5 2.25C22.5 1.00736 23.5073 0 24.75 0C25.9926 0 27 1.00736 27 2.25Z" fill="white"/>
<path d="M71.75 4.5C72.9926 4.5 74 3.49264 74 2.25C74 1.00736 72.9926 0 71.75 0C70.5073 0 69.5 1.00736 69.5 2.25C69.5 3.49264 70.5073 4.5 71.75 4.5Z" fill="white"/>
</svg>